<svg width="2041" height="338" viewBox="0 0 2041 338" fill="none" xmlns="http://www.w3.org/2000/svg">
<path d="M180.976 0.972656H226.361V330.786H180.976V303.571C168.445 319.715 142.49 337.705 105.823 337.705C45.0212 337.705 0 290.655 0 213.16C0 135.666 45.0212 88.6154 105.823 88.6154C142.49 88.6154 166.624 105.683 179.157 123.673L180.976 0.972656ZM105.823 298.035C145.739 298.035 178.693 265.284 178.693 213.16C178.693 160.575 140.842 126.901 105.823 126.901C67.7637 126.901 43.4182 170.731 43.4182 213.16C43.4182 256.521 63.1224 298.035 105.823 298.035Z" fill="black"/>
<path d="M269.59 95.0703H318.324V330.783H269.59V95.0703Z" fill="black"/>
<path d="M476.956 89.5352C485.312 89.5352 491.344 89.9965 498.307 90.9191V136.585H497.379C450.501 128.744 412.906 160.111 412.906 210.391V330.783H364.172V95.0705H412.906V139.353H413.834C426.365 109.831 445.859 89.5352 476.956 89.5352Z" fill="black"/>
<path d="M615.295 298.033C655.676 298.033 671.92 273.125 676.096 258.825H724.83C712.763 303.569 677.489 337.703 616.688 337.703C542.89 337.703 497.869 286.963 497.869 213.158C497.869 136.586 542.89 88.6133 614.367 88.6133C690.948 88.6133 728.544 141.66 728.544 225.613H546.603C546.603 265.282 572.131 298.033 615.295 298.033ZM614.367 126.899C574.915 126.899 546.603 153.192 546.603 189.633H679.81C679.81 153.192 653.819 126.899 614.367 126.899Z" fill="black"/>
<path d="M925.58 181.33C923.725 157.344 908.409 128.283 866.636 128.283C818.83 128.283 798.408 168.876 798.408 213.158C798.408 257.441 818.366 298.033 866.636 298.033C908.409 298.033 923.725 269.434 925.58 243.142H974.316C970.602 297.571 928.365 337.703 866.636 337.703C795.623 337.703 749.674 286.963 749.674 213.158C749.674 139.354 795.623 88.6133 866.172 88.6133C927.901 88.6133 968.282 127.822 974.316 181.33H925.58Z" fill="black"/>
<path d="M1091.88 134.721H1047.33V262.494C1047.33 289.249 1060.32 292.478 1091.88 290.633V330.302C1082.14 332.608 1071.46 333.992 1058.46 333.992C1019.48 333.992 998.128 316.464 998.128 266.646V134.721V95.0509V20.7852H1047.33V95.0509H1091.88V134.721Z" fill="black"/>
<path d="M1129.28 95.0703H1178.01V330.783H1129.28V95.0703Z" fill="black"/>
<path d="M1795.03 298.033C1835.42 298.033 1851.66 273.125 1855.83 258.825H1904.57C1892.51 303.569 1857.22 337.703 1796.42 337.703C1722.62 337.703 1677.61 286.963 1677.61 213.158C1677.61 136.586 1722.62 88.6133 1794.1 88.6133C1870.69 88.6133 1908.28 141.66 1908.28 225.613H1726.33C1726.33 265.282 1751.86 298.033 1795.03 298.033ZM1794.1 126.899C1754.66 126.899 1726.33 153.192 1726.33 189.633H1859.54C1859.54 153.192 1833.55 126.899 1794.1 126.899Z" fill="black"/>
<path d="M2040.5 134.721H1995.95V262.494C1995.95 289.249 2008.94 292.478 2040.5 290.633V330.302C2030.76 332.608 2020.09 333.992 2007.1 333.992C1968.1 333.992 1946.75 316.464 1946.75 266.646C1946.75 215.126 1946.75 186.241 1946.75 134.721V95.0509V20.7852H1995.95V95.0509H2040.5V134.721Z" fill="black"/>
<path fill-rule="evenodd" clip-rule="evenodd" d="M1600.44 95.0703H1647.9V330.783H1600.44V243.141L1508.99 330.783H1448.88L1511.9 271.97L1555.89 230.908H1387.41V193.867H1555.1L1453.64 95.0703H1508.99L1600.44 181.329V95.0703Z" fill="black"/>
<path fill-rule="evenodd" clip-rule="evenodd" d="M1385.34 167.653C1379.39 147.548 1362.92 128.283 1328.91 128.283C1281.1 128.283 1260.68 168.876 1260.68 213.158C1260.68 257.441 1280.64 298.033 1328.91 298.033C1363.42 298.033 1379.88 278.506 1385.6 256.888H1434.78C1425.44 304.195 1385.31 337.703 1328.91 337.703C1257.89 337.703 1211.94 286.963 1211.94 213.158C1211.94 139.354 1257.89 88.6133 1328.44 88.6133C1384.78 88.6133 1423.33 121.272 1434.23 167.653H1385.34Z" fill="black"/>
</svg>
