<svg width="100" height="100" viewBox="0 0 100 100" fill="none" xmlns="http://www.w3.org/2000/svg">
<path d="M47.2015 4.32439C48.5151 2.2946 51.4849 2.2946 52.7985 4.32439L59.3443 14.4394C60.2015 15.7641 61.8701 16.3063 63.3423 15.7385L74.5834 11.4028C76.8392 10.5327 79.2419 12.2783 79.1115 14.6926L78.4617 26.7233C78.3766 28.2989 79.4078 29.7183 80.9326 30.1242L92.5753 33.224C94.9117 33.846 95.8294 36.6705 94.3049 38.547L86.7076 47.8981C85.7127 49.1228 85.7127 50.8772 86.7076 52.1019L94.3049 61.453C95.8294 63.3295 94.9117 66.154 92.5753 66.776L80.9326 69.8758C79.4078 70.2817 78.3766 71.7011 78.4617 73.2767L79.1115 85.3074C79.2419 87.7217 76.8392 89.4673 74.5834 88.5972L63.3423 84.2615C61.8701 83.6937 60.2015 84.2359 59.3443 85.5606L52.7985 95.6756C51.4849 97.7054 48.5151 97.7054 47.2015 95.6756L40.6557 85.5605C39.7985 84.2359 38.1299 83.6937 36.6577 84.2615L25.4166 88.5972C23.1608 89.4673 20.7581 87.7217 20.8885 85.3074L21.5383 73.2767C21.6234 71.7011 20.5922 70.2817 19.0674 69.8758L7.42469 66.776C5.08833 66.154 4.1706 63.3295 5.69514 61.453L13.2924 52.1019C14.2873 50.8772 14.2873 49.1228 13.2924 47.8981L5.69514 38.547C4.1706 36.6705 5.08833 33.846 7.42469 33.224L19.0674 30.1242C20.5922 29.7183 21.6234 28.2989 21.5383 26.7233L20.8885 14.6926C20.7581 12.2783 23.1608 10.5327 25.4166 11.4028L36.6577 15.7385C38.1299 16.3063 39.7985 15.7641 40.6557 14.4394L47.2015 4.32439Z" fill="#FFBF00"/>
<path d="M70.2528 34.584L70.2525 34.5837C69.61 34.0125 68.7671 33.7196 67.9089 33.7695C67.0506 33.8194 66.2473 34.2079 65.6753 34.8497L65.6744 34.8507L44.1617 59.0525L34.6183 48.3167L34.6073 48.3043L34.5959 48.2923C34.0161 47.682 33.2219 47.321 32.3808 47.2855C31.5398 47.25 30.7179 47.5427 30.0888 48.102C29.4597 48.6612 29.0725 49.4431 29.0092 50.2825C28.9459 51.1219 29.2113 51.953 29.7494 52.6003L29.76 52.613L29.771 52.6254L41.738 66.0891C41.738 66.0891 41.738 66.0891 41.738 66.0892C42.0424 66.4316 42.4158 66.7057 42.8337 66.8934C43.2517 67.0812 43.7046 67.1782 44.1628 67.1782C44.621 67.1782 45.074 67.0812 45.4919 66.8934C45.9099 66.7057 46.2833 66.4316 46.5876 66.0892C46.5876 66.0891 46.5877 66.0891 46.5877 66.0891L70.5217 39.1616L70.5221 39.1612C71.0929 38.5183 71.3852 37.6751 71.3347 36.8169C71.2842 35.9586 70.8951 35.1555 70.2528 34.584Z" fill="white" stroke="white" stroke-width="2"/>
</svg>
